<svg xmlns="http://www.w3.org/2000/svg" xmlns:xlink="http://www.w3.org/1999/xlink" width="1440" height="1094" viewBox="0 0 1440 1094"><defs><style>.a,.c{fill:#fff;}.a{stroke:#707070;}.b{fill:none;}.d{clip-path:url(#a);}.e{fill:#f0f0f0;}.f{clip-path:url(#b);}.g{fill:#c70000;}.g,.i,.j,.k,.l,.m,.p{mix-blend-mode:multiply;}.g,.i,.j,.k,.l,.m,.n,.p,.q{isolation:isolate;}.h{opacity:0.22;}.i{fill:#bcbec0;opacity:0.3;}.j{fill:url(#c);}.k{fill:url(#d);}.l,.o,.p,.q{fill:url(#e);}.m{fill:url(#i);}.n{fill:#231f20;opacity:0.49;mix-blend-mode:darken;}.p{opacity:0.43;}.q{mix-blend-mode:soft-light;}</style><clipPath id="a"><rect class="a" width="1440" height="1094" transform="translate(0 1623)"/></clipPath><clipPath id="b"><rect class="b" width="1440" height="1056.001"/></clipPath><linearGradient id="c" y1="0.5" x2="1" y2="0.5" gradientUnits="objectBoundingBox"><stop offset="0" stop-color="#231f20"/><stop offset="1" stop-color="#c70000"/></linearGradient><linearGradient id="d" y1="0.5" x2="1" y2="0.5" gradientUnits="objectBoundingBox"><stop offset="0" stop-color="#231f20"/><stop offset="0.001" stop-color="#231e1f"/><stop offset="0.063" stop-color="#4a1718"/><stop offset="0.13" stop-color="#6b1111"/><stop offset="0.205" stop-color="#870b0c"/><stop offset="0.289" stop-color="#9f0707"/><stop offset="0.384" stop-color="#b10404"/><stop offset="0.498" stop-color="#bd0101"/><stop offset="0.65" stop-color="#c40000"/><stop offset="1" stop-color="#c70000"/></linearGradient><linearGradient id="e" y1="0.5" x2="1" y2="0.5" gradientUnits="objectBoundingBox"><stop offset="0" stop-color="#d1d3d4"/><stop offset="1" stop-color="#fff"/></linearGradient><linearGradient id="i" y1="0.5" x2="1" y2="0.5" gradientUnits="objectBoundingBox"><stop offset="0" stop-color="#fff"/><stop offset="1" stop-color="#d1d3d4"/></linearGradient></defs><g transform="translate(0 -1622)"><rect class="c" width="1440" height="995" transform="translate(0 1683)"/><g class="d" transform="translate(0 -1)"><g transform="translate(0 1788)"><rect class="e" width="1440" height="1056.001"/><g transform="translate(0 -165)"><g class="f"><path class="g" d="M1314,185.562H189.2L53.209,12.693h1124.8Z" transform="translate(713.001 170.09)"/><g class="h" transform="translate(-176.312 944.196)"><path class="i" d="M1150.645,221.281H150.444L29.518,67.562h1000.2Z" transform="translate(571.859 -38.867)"/><path class="i" d="M1168.508,220.286H168.307L47.381,66.565h1000.2Z" transform="translate(811.22 -52.219)"/><path class="i" d="M899.469,190.576H86.094L-12.244,65.569H801.13Z" transform="translate(12.244 -65.569)"/></g><path class="g" d="M1287.67,242.781H162.868L26.877,69.91h1124.8Z" transform="translate(360.157 936.798)"/><path class="g" d="M1307.758,241.659H182.955L46.966,68.79h1124.8Z" transform="translate(629.338 921.785)"/><path class="g" d="M1296.474,179.234H171.672L35.681,6.365h1124.8Z" transform="translate(478.124 85.29)"/><path class="g" d="M1237.251,172.191H112.448L-23.543-.678h1124.8Z" transform="translate(-315.474 -9.084)"/><path class="j" d="M670.1,74.152H33.944l-48.6-61.785H621.5Z" transform="translate(-196.432 165.722)"/><path class="k" d="M1168.662,111.8H72.305L-11.458,5.325H1084.9Z" transform="translate(-153.537 71.348)"/><path class="l" d="M780.46,95.729H143L65.933-2.24H703.389Z" transform="translate(883.502 -30.011)"/><path class="l" d="M707.363,111.9H69.907L-7.163,13.928H630.293Z" transform="translate(-95.988 186.63)"/><path class="l" d="M1052.055,161.317H81.476L-35.868,12.15H934.711Z" transform="translate(-480.627 162.809)"/><path class="l" d="M1393.007,198.333H195.852L51.113,14.343H1248.269Z" transform="translate(684.917 192.189)"/><path class="m" d="M1547.982,216.341H192.873L29.038,8.077H1384.147Z" transform="translate(389.113 108.229)"/><path class="n" d="M707.363,100.389H69.907L-7.163,2.418H630.293Z" transform="translate(-95.988 32.404)"/><path class="o" d="M706.349,99.892H68.892L-8.177,1.923H629.28Z" transform="translate(-109.566 25.766)"/><path class="l" d="M1005.2,208.248H90.5L-20.088,67.669h914.7Z" transform="translate(-269.172 906.771)"/><path class="l" d="M1031.439,137.541H147.226L40.323,1.646H924.536Z" transform="translate(540.326 22.062)"/><path class="p" d="M705.229,100.934H67.773L-9.3,2.963H628.159Z" transform="translate(-124.581 39.707)"/><path class="q" d="M1170.535,163.822H132.1L6.549,4.225H1044.987Z" transform="translate(87.761 56.616)"/></g></g></g></g></g></svg>